<svg xmlns="http://www.w3.org/2000/svg" viewBox="0 0 1024 1024" version="1.1">
	<path d="M 493 287.037 C 452.304 290.922, 413.874 305.760, 381.155 330.220 C 369.010 339.299, 347.589 360.559, 338.049 373 C 314.770 403.359, 299.734 440.451, 294.944 479.330 C 293.160 493.809, 294.223 526.162, 297.003 542 C 312.226 628.729, 377.584 697.730, 462.152 716.355 C 494.936 723.575, 534.297 723.400, 564.500 715.899 C 622.117 701.589, 672.096 663.699, 701.230 612.240 C 713.478 590.608, 724.436 558.894, 726.179 540.033 L 726.500 536.567 717.500 536.211 C 712.550 536.014, 704.409 536.149, 699.408 536.508 L 690.316 537.163 689.147 543.507 C 687.289 553.588, 680.306 573.581, 674.654 585 C 641.435 652.118, 570.490 692.342, 496.500 686.010 C 433.719 680.637, 381.470 646.564, 350.808 591 C 326.230 546.461, 322.174 487.341, 340.449 439.998 C 357.709 395.284, 390.308 359.919, 432.837 339.770 C 498.254 308.779, 570.649 317.422, 628.075 363.080 L 636.650 369.898 643.460 363.572 C 647.206 360.093, 649.989 356.791, 649.644 356.233 C 649.300 355.676, 645.751 354.434, 641.759 353.473 C 632.266 351.188, 631.373 350.660, 630.008 346.523 C 627.922 340.202, 630.546 335.976, 638.118 333.461 C 640.803 332.569, 643 331.504, 643 331.094 C 643 327.157, 611.348 308.892, 590.061 300.546 C 562.547 289.758, 522.652 284.206, 493 287.037 M 697.500 320.042 C 694.750 321.094, 680.350 326.055, 665.500 331.066 C 650.650 336.077, 637.409 340.874, 636.077 341.725 C 633.847 343.149, 633.790 343.373, 635.360 344.521 C 636.298 345.207, 641.240 346.733, 646.341 347.912 C 659.573 350.970, 663 351.989, 663 352.867 C 663 353.676, 628.343 385.748, 612 400.062 C 603.820 407.226, 575.847 432.450, 544.974 460.500 C 540.131 464.900, 530.944 473.404, 524.558 479.398 C 514.170 489.149, 512.713 490.190, 510.723 489.279 C 509.501 488.720, 495.225 480.476, 479 470.959 C 439.782 447.955, 414.789 433.904, 413.723 434.259 C 413.245 434.418, 419.299 440.205, 427.177 447.118 C 443.139 461.126, 451.521 468.898, 486.813 502.412 C 500.185 515.110, 511.447 525.616, 511.839 525.758 C 512.230 525.901, 519.514 518.492, 528.025 509.296 C 536.536 500.099, 549.800 485.795, 557.500 477.510 C 565.200 469.224, 580.032 453.008, 590.461 441.473 C 600.890 429.938, 617.315 412.001, 626.961 401.612 C 636.607 391.224, 647.932 378.849, 652.126 374.112 C 656.321 369.376, 661.566 363.762, 663.783 361.638 L 667.814 357.776 669.492 365.638 C 673.307 383.510, 674.490 387.500, 675.972 387.500 C 676.921 387.500, 679.523 382.518, 683.283 373.500 C 689.718 358.071, 703.897 322.511, 704.715 319.750 C 705.372 317.533, 703.904 317.593, 697.500 320.042 M 496.500 328.647 C 444.787 334.642, 402.151 358.167, 371.739 397.484 C 350.450 425.007, 338.533 455.949, 335.932 490.457 C 328.980 582.678, 394.846 665.152, 486.168 678.572 C 501.838 680.875, 532.166 680.098, 546.500 677.027 C 598.295 665.931, 641.961 633.123, 666.358 586.976 C 674.662 571.268, 678.909 559.503, 683.424 539.704 L 684.061 536.907 677.426 537.204 L 670.790 537.500 668.397 547 C 655.586 597.848, 615.661 640.936, 565.159 658.417 C 536.468 668.348, 500.556 669.867, 471 662.400 C 441.281 654.892, 418.806 641.972, 396.490 619.564 C 373.564 596.545, 359.800 572.813, 352.570 543.838 C 345.507 515.531, 346.431 481.317, 354.964 455.199 C 370.179 408.632, 405.616 370.630, 450.831 352.393 C 472.411 343.689, 490.815 340.558, 516.292 341.257 C 553.673 342.282, 583.684 353.008, 614.088 376.209 C 618.262 379.394, 622.087 381.981, 622.588 381.958 C 623.090 381.935, 625.300 380.313, 627.500 378.353 L 631.500 374.790 626.663 370.645 C 600.748 348.436, 568.174 334.066, 533.424 329.511 C 523.086 328.156, 504.492 327.721, 496.500 328.647 M 508.901 349.099 C 507.036 350.964, 506.842 352.133, 507.151 359.635 C 507.516 368.472, 508.289 369.953, 512.550 369.985 C 516.211 370.012, 517 368.038, 517 358.857 C 517 350.955, 516.786 349.964, 514.777 348.557 C 511.901 346.542, 511.413 346.587, 508.901 349.099 M 433.571 369.571 C 431.490 371.652, 431.555 372.183, 434.628 378.283 C 438.999 386.960, 440.801 389, 444.090 389 C 449.001 389, 449.926 385.278, 446.497 379.313 C 440.160 368.290, 437.133 366.009, 433.571 369.571 M 586.215 369.674 C 584.298 370.444, 577.837 383.850, 578.192 386.320 C 578.603 389.178, 583.253 390.865, 585.525 388.980 C 586.429 388.229, 588.731 384.512, 590.641 380.719 C 593.926 374.196, 594.029 373.693, 592.534 371.412 C 591.024 369.108, 589.007 368.553, 586.215 369.674 M 657.174 377.473 C 653.779 381.103, 651 384.527, 651 385.081 C 651 385.636, 654.135 390.457, 657.966 395.795 C 673.206 417.027, 682.318 436.198, 688.425 459.878 L 691.680 472.500 709.340 472.773 C 724.591 473.009, 727 472.839, 727 471.527 C 727 467.496, 721.739 445.936, 718.060 434.888 C 711.347 414.733, 690.594 375.770, 688.088 378.618 C 687.661 379.103, 686.283 382.103, 685.026 385.284 C 682.460 391.776, 680.891 393, 675.137 393 C 671.725 393, 668 391.114, 668 389.386 C 668 387.810, 664.689 373.270, 664.083 372.186 C 663.565 371.258, 661.533 372.813, 657.174 377.473 M 641.104 394.535 C 637.202 398.979, 637.204 399.008, 641.910 405.379 C 647.573 413.043, 653.311 422.656, 658.856 433.765 C 664.542 445.156, 668.084 455.443, 671.419 470.250 C 672.010 472.874, 672.311 473, 678.019 473 C 683.557 473, 683.999 472.833, 683.993 470.750 C 683.970 463.309, 676.136 440.139, 668.594 425.207 C 662.583 413.305, 647.222 391, 645.037 391 C 644.580 391, 642.811 392.591, 641.104 394.535 M 505.309 401.636 C 503.836 405.475, 509.149 408.296, 511.333 404.834 C 512.096 403.625, 512.023 402.733, 511.070 401.584 C 509.359 399.523, 506.109 399.552, 505.309 401.636 M 515.147 401.323 C 513.634 403.146, 514.626 405.747, 517.140 406.545 C 519.687 407.353, 522.177 405.237, 521.798 402.588 C 521.436 400.055, 516.913 399.195, 515.147 401.323 M 496.229 402.171 C 494.327 404.073, 494.775 406.794, 497.112 407.535 C 500.061 408.471, 502.882 405.623, 501.376 403.231 C 499.994 401.037, 497.813 400.587, 496.229 402.171 M 524.463 403.116 C 523.960 404.700, 524.281 405.732, 525.569 406.674 C 527.841 408.336, 528.176 408.328, 530.559 406.559 C 532.109 405.408, 532.278 404.753, 531.399 403.309 C 529.697 400.512, 525.328 400.391, 524.463 403.116 M 486.238 404.162 C 484.419 405.981, 484.725 407.782, 487.064 409.034 C 489.688 410.439, 492.227 408.590, 491.798 405.588 C 491.454 403.177, 488.086 402.314, 486.238 404.162 M 534.955 404.555 C 533.880 405.850, 533.995 406.440, 535.649 408.093 C 538.693 411.138, 542.895 408.495, 541.362 404.500 C 540.609 402.539, 536.599 402.573, 534.955 404.555 M 544.930 406.584 C 543.154 408.724, 544.941 411.500, 548.095 411.500 C 550.816 411.500, 551.843 408.721, 549.960 406.452 C 548.392 404.562, 546.568 404.610, 544.930 406.584 M 476.362 407.500 C 475.486 409.781, 476.711 412, 478.846 412 C 481.272 412, 483.400 409.485, 482.643 407.513 C 481.892 405.556, 477.111 405.546, 476.362 407.500 M 554.655 408.829 C 552.160 411.585, 552.585 415.528, 555.635 417.927 C 557.084 419.067, 558.834 420, 559.524 420 C 562.068 420, 565.250 416.388, 565.250 413.500 C 565.250 408.089, 558.155 404.961, 554.655 408.829 M 467.040 410.452 C 465.242 412.618, 466.708 416, 469.445 416 C 472.744 416, 474.433 413.678, 473.034 411.064 C 471.751 408.666, 468.775 408.362, 467.040 410.452 M 458.547 414.342 C 456.451 415.875, 456.981 418.672, 459.555 419.659 C 461.942 420.576, 464.744 417.402, 463.412 415.291 C 461.954 412.981, 460.734 412.743, 458.547 414.342 M 449.831 419.936 C 447.861 421.531, 447.745 421.988, 448.945 423.434 C 451.021 425.935, 454.439 425.027, 454.804 421.878 C 455.199 418.473, 452.797 417.534, 449.831 419.936 M 378.200 423.200 C 377.540 423.860, 377 425.654, 377 427.187 C 377 430.158, 380.108 432.649, 389.519 437.221 L 394.031 439.414 396.147 437.298 C 399.685 433.759, 398.072 430.970, 389.727 426.196 C 381.956 421.749, 380.126 421.274, 378.200 423.200 M 499.966 423.541 C 497.365 426.675, 501.199 430.053, 504.540 427.572 C 506.110 426.407, 506.280 425.757, 505.393 424.309 C 503.906 421.880, 501.613 421.556, 499.966 423.541 M 508.667 422.667 C 507.257 424.076, 508.094 426.895, 510.112 427.535 C 512.717 428.362, 515.331 426.027, 514.430 423.678 C 513.797 422.029, 509.975 421.359, 508.667 422.667 M 517.998 423.502 C 516.887 424.841, 516.924 425.353, 518.224 426.653 C 520.437 428.866, 524.215 427.520, 523.808 424.664 C 523.428 421.993, 519.846 421.276, 517.998 423.502 M 633.899 425.280 C 624.271 430.814, 622.711 433.618, 627.067 437.560 C 629.281 439.564, 630.481 439.121, 642.750 431.781 C 647.972 428.657, 646.631 421.896, 640.816 422.030 C 640.092 422.047, 636.979 423.509, 633.899 425.280 M 527.389 424.430 C 526.393 427.025, 527.788 429.169, 530.246 428.820 C 531.898 428.585, 532.500 427.833, 532.500 426 C 532.500 423.048, 528.402 421.789, 527.389 424.430 M 441.309 425.636 C 439.836 429.475, 445.149 432.296, 447.333 428.834 C 448.096 427.625, 448.023 426.733, 447.070 425.584 C 445.359 423.523, 442.109 423.552, 441.309 425.636 M 490.362 425.500 C 488.825 429.505, 492.753 431.438, 496.162 428.353 C 497.887 426.793, 497.891 426.638, 496.241 425.385 C 493.898 423.607, 491.067 423.662, 490.362 425.500 M 536.037 426.931 C 534.685 429.457, 537.381 432.365, 540.394 431.632 C 542.024 431.235, 542.839 431.840, 544 434.310 C 545.903 438.358, 550.600 439.204, 553.483 436.018 C 557.519 431.559, 550.944 424.680, 545.747 427.926 C 543.837 429.119, 543.432 429.029, 542.174 427.136 C 540.409 424.477, 537.404 424.376, 536.037 426.931 M 482.011 427.487 C 479.421 430.608, 483.813 434.615, 486.680 431.748 C 488.617 429.811, 487.540 426, 485.055 426 C 484.059 426, 482.689 426.669, 482.011 427.487 M 434.441 431.441 C 431.933 433.304, 433.610 436.500, 437.095 436.500 C 439.816 436.500, 440.843 433.721, 438.960 431.452 C 437.457 429.641, 436.868 429.639, 434.441 431.441 M 473.389 431.430 C 472.393 434.025, 473.788 436.169, 476.246 435.820 C 477.898 435.585, 478.500 434.833, 478.500 433 C 478.500 430.048, 474.402 428.789, 473.389 431.430 M 464.966 435.541 C 462.365 438.675, 466.199 442.053, 469.540 439.572 C 471.110 438.407, 471.280 437.757, 470.393 436.309 C 468.906 433.880, 466.613 433.556, 464.966 435.541 M 458.250 439.662 C 456.584 440.335, 456.658 443.471, 458.373 444.895 C 460.020 446.261, 462.616 445.442, 463.440 443.296 C 464.540 440.429, 461.546 438.332, 458.250 439.662 M 503 444.500 C 501.583 446.208, 503.175 449, 505.566 449 C 507.666 449, 510.248 444.776, 508.735 443.815 C 506.786 442.577, 504.355 442.868, 503 444.500 M 511.088 444.394 C 509.933 445.785, 511.930 449, 513.949 449 C 515.448 449, 517.228 446.036, 516.643 444.513 C 515.915 442.615, 512.622 442.545, 511.088 444.394 M 519.389 444.430 C 518.393 447.025, 519.788 449.169, 522.246 448.820 C 523.898 448.585, 524.500 447.833, 524.500 446 C 524.500 443.048, 520.402 441.789, 519.389 444.430 M 451.362 445.500 C 450.484 447.787, 451.713 450, 453.862 450 C 456.227 450, 457.441 447.237, 455.895 445.373 C 454.390 443.560, 452.081 443.625, 451.362 445.500 M 495.082 445.847 C 493.932 447.996, 495.404 450, 498.133 450 C 500.369 450, 501.699 446.058, 499.857 444.890 C 497.717 443.535, 496.152 443.848, 495.082 445.847 M 526.995 446.506 C 525.005 448.904, 529.096 452.995, 531.494 451.005 C 532.375 450.274, 532.962 448.736, 532.798 447.588 C 532.427 444.987, 528.814 444.314, 526.995 446.506 M 415.051 448.439 C 412.521 451.487, 416.513 455.479, 419.561 452.949 C 420.406 452.248, 420.962 450.736, 420.798 449.588 C 420.432 447.023, 416.824 446.302, 415.051 448.439 M 487.709 447.624 C 486.474 448.859, 486.943 451.764, 488.471 452.351 C 490.178 453.006, 493.265 450.303, 492.716 448.634 C 492.280 447.307, 488.740 446.594, 487.709 447.624 M 479.494 451.009 C 478.411 452.762, 480.057 456, 482.032 456 C 484.502 456, 486.335 452.735, 484.753 451.153 C 483.331 449.731, 480.335 449.649, 479.494 451.009 M 473.011 455.487 C 471.367 457.468, 472.446 460, 474.933 460 C 477.482 460, 479.365 456.765, 477.753 455.153 C 476.185 453.585, 474.490 453.705, 473.011 455.487 M 410.384 456.442 C 409.319 459.217, 410.456 461.500, 412.905 461.500 C 416.059 461.500, 417.846 458.724, 416.070 456.584 C 414.428 454.606, 411.120 454.523, 410.384 456.442 M 405.998 466.004 C 405.140 467.606, 405.154 468.480, 406.053 469.564 C 408.843 472.925, 413.615 469.788, 411.302 466.114 C 409.766 463.674, 407.272 463.622, 405.998 466.004 M 427.709 466.624 C 426.658 467.675, 426.850 470.789, 428.009 471.506 C 430.022 472.750, 433.128 470.911, 432.808 468.664 C 432.503 466.523, 429.151 465.182, 427.709 466.624 M 402.571 474.571 C 400.598 476.545, 400.598 477.455, 402.569 479.427 C 403.754 480.611, 404.612 480.743, 406.069 479.963 C 408.398 478.717, 408.632 474.456, 406.418 473.607 C 404.301 472.795, 404.364 472.779, 402.571 474.571 M 424.040 475.452 C 422.123 477.762, 423.186 480.500, 426 480.500 C 427.585 480.500, 428.597 479.855, 428.819 478.702 C 429.165 476.904, 427.424 474, 426 474 C 425.585 474, 424.703 474.653, 424.040 475.452 M 443.709 476.624 C 442.470 477.863, 442.945 481.765, 444.403 482.324 C 446.470 483.118, 449.274 480.664, 448.849 478.434 C 448.479 476.499, 445.044 475.289, 443.709 476.624 M 647 505 L 647 532 688.387 532 L 729.773 532 730.139 518.250 C 730.340 510.688, 730.346 498.538, 730.152 491.250 L 729.799 478 688.400 478 L 647 478 647 505 M 398.998 485.003 C 397.560 487.690, 399.371 490.233, 402.412 489.798 C 405.490 489.359, 405.407 483.629, 402.318 483.189 C 400.905 482.988, 399.735 483.628, 398.998 485.003 M 419.938 485.117 C 419.042 486.789, 419.124 487.552, 420.325 488.753 C 423.188 491.617, 427.576 487.604, 424.989 484.487 C 423.251 482.392, 421.263 482.640, 419.938 485.117 M 439.930 485.584 C 438.589 487.200, 439.509 490.003, 441.612 490.704 C 443.663 491.388, 446.262 488.402, 445.555 486.174 C 444.747 483.629, 441.809 483.320, 439.930 485.584 M 653 505.041 L 653 526.081 688.499 525.791 L 723.998 525.500 723.999 504.750 L 724 484 688.500 484 L 653 484 653 505.041 M 458.362 488.500 C 457.478 490.802, 458.719 493, 460.901 493 C 462.931 493, 464.606 489.790, 463.506 488.009 C 462.554 486.469, 459.011 486.807, 458.362 488.500 M 669 492.500 L 669 496 674.551 496 L 680.102 496 677.551 499.344 C 673.722 504.365, 674.131 506.677, 678.995 507.499 C 681.192 507.870, 683.286 508.654, 683.649 509.242 C 684.053 509.895, 683.832 510.014, 683.081 509.550 C 682.188 508.998, 682.214 509.374, 683.176 510.926 C 685.505 514.681, 680.063 516.395, 675 513.500 C 671.546 511.526, 671.256 511.603, 669.515 514.970 C 668.042 517.819, 668.081 518.007, 670.467 519.570 C 678.743 524.993, 690.755 521.944, 692.505 513.978 C 693.222 510.712, 691.152 505.280, 688.181 502.634 L 686.086 500.768 688.543 497.152 C 689.894 495.163, 691 492.515, 691 491.268 C 691 489.048, 690.766 489, 680 489 L 669 489 669 492.500 M 694 492.500 C 694 495.722, 694.238 496, 697 496 L 700 496 700 509 L 700 522 703.500 522 L 707 522 707 505.500 L 707 489 700.500 489 L 694 489 694 492.500 M 417.120 493.776 C 415.883 496.087, 417.484 499, 419.991 499 C 422.463 499, 423.334 497.465, 422.575 494.443 C 421.846 491.538, 418.534 491.133, 417.120 493.776 M 436.938 494.117 C 436.042 495.789, 436.124 496.552, 437.325 497.753 C 440.188 500.617, 444.576 496.604, 441.989 493.487 C 440.251 491.392, 438.263 491.640, 436.938 494.117 M 396.384 494.442 C 395.413 496.971, 396.455 499.491, 398.598 499.798 C 401.276 500.183, 403.348 497.671, 402.515 495.048 C 401.753 492.645, 397.245 492.199, 396.384 494.442 M 456.137 495.744 C 454.864 498.124, 456.186 500.303, 458.620 499.835 C 459.855 499.597, 460.500 498.625, 460.500 497 C 460.500 493.954, 457.550 493.104, 456.137 495.744 M 507 500 C 501.414 505.586, 509.086 514.314, 515.476 509.642 C 518.170 507.671, 517.934 502.175, 515.056 499.844 C 512.108 497.457, 509.493 497.507, 507 500 M 356.035 501.934 C 353.025 507.558, 356.271 510, 366.757 510 C 375.323 510, 378 508.809, 378 505 C 378 501.095, 375.363 500, 365.964 500 C 358.195 500, 356.940 500.245, 356.035 501.934 M 416.163 501.878 C 414.215 503.113, 415.130 507.409, 417.434 507.849 C 420.087 508.355, 422.229 505.296, 420.926 502.862 C 419.852 500.855, 418.287 500.532, 416.163 501.878 M 435.053 502.436 C 433.629 504.152, 435.261 508, 437.413 508 C 439.531 508, 441.228 505.292, 440.515 503.048 C 439.763 500.679, 436.788 500.346, 435.053 502.436 M 396.200 503.200 C 393.352 506.048, 396.464 511.519, 399.500 509 C 401.848 507.052, 400.765 502, 398 502 C 397.670 502, 396.860 502.540, 396.200 503.200 M 454.362 503.500 C 453.569 505.564, 454.644 508, 456.346 508 C 458.348 508, 460.330 505.302, 459.643 503.513 C 458.894 501.559, 455.110 501.550, 454.362 503.500 M 433.998 511.004 C 433.140 512.606, 433.154 513.480, 434.053 514.564 C 436.843 517.925, 441.615 514.788, 439.302 511.114 C 437.766 508.674, 435.272 508.622, 433.998 511.004 M 454.011 510.487 C 452.349 512.489, 453.456 515, 456 515 C 457.135 515, 458.324 514.319, 458.643 513.487 C 459.218 511.990, 457.457 509, 456 509 C 455.585 509, 454.689 509.669, 454.011 510.487 M 415.488 511.385 C 413.002 513.203, 413.982 516.438, 417.131 516.804 C 419.884 517.124, 421.388 515.175, 420.391 512.577 C 419.589 510.487, 417.433 509.963, 415.488 511.385 M 395.046 513.444 C 392.345 516.699, 396.815 520.614, 399.811 517.618 C 401.084 516.344, 401.215 515.563, 400.376 514.231 C 398.916 511.913, 396.601 511.571, 395.046 513.444 M 435.040 518.452 C 433.123 520.762, 434.186 523.500, 437 523.500 C 438.585 523.500, 439.597 522.855, 439.819 521.702 C 440.165 519.904, 438.424 517, 437 517 C 436.585 517, 435.703 517.653, 435.040 518.452 M 453.332 518.578 C 452.999 519.445, 453.463 520.892, 454.363 521.792 C 455.836 523.264, 456.154 523.274, 457.537 521.892 C 458.406 521.022, 458.794 519.627, 458.430 518.678 C 457.616 516.556, 454.134 516.488, 453.332 518.578 M 414.309 521.636 C 413.482 523.792, 415.259 526.500, 417.500 526.500 C 418.480 526.500, 419.740 525.774, 420.300 524.886 C 421.828 522.464, 420.416 520, 417.500 520 C 416.050 520, 414.665 520.710, 414.309 521.636 M 395.053 523.436 C 394.154 524.520, 394.140 525.394, 394.998 526.996 C 396.272 529.378, 398.766 529.326, 400.302 526.886 C 402.615 523.212, 397.843 520.075, 395.053 523.436 M 455.153 525.247 C 453.582 526.818, 453.705 528.511, 455.500 530 C 457.215 531.423, 460 529.822, 460 527.413 C 460 525.385, 456.555 523.845, 455.153 525.247 M 435.709 526.624 C 433.424 528.910, 436.414 533.546, 439.427 532.390 C 441.877 531.450, 441.115 526.588, 438.459 526.208 C 437.336 526.047, 436.099 526.235, 435.709 526.624 M 416.724 529.134 C 412.838 531.309, 416.294 536.983, 420.224 534.880 C 421.201 534.357, 422 533.061, 422 532 C 422 529.485, 419.005 527.858, 416.724 529.134 M 396.093 533.388 C 395.172 534.497, 395.140 535.393, 395.966 536.936 C 397.878 540.508, 402.409 538.927, 401.837 534.887 C 401.439 532.066, 397.947 531.154, 396.093 533.388 M 456.359 533.507 C 456.006 534.427, 456.416 535.844, 457.286 536.714 C 459.410 538.838, 462.227 537.621, 461.820 534.754 C 461.426 531.977, 457.307 531.037, 456.359 533.507 M 437.037 535.931 C 435.916 538.026, 438.221 541.426, 440.295 540.735 C 442.480 540.007, 443.436 537.231, 442.070 535.584 C 440.298 533.450, 438.291 533.588, 437.037 535.931 M 418.040 538.452 C 416.027 540.878, 417.738 544.167, 420.827 543.808 C 423.968 543.444, 424.773 540.915, 422.479 538.621 C 420.480 536.622, 419.587 536.588, 418.040 538.452 M 460.200 539.200 C 458.626 540.774, 458.686 541.543, 460.529 543.386 C 463.277 546.134, 467.378 542.365, 464.895 539.373 C 463.491 537.681, 461.782 537.618, 460.200 539.200 M 398.200 542.200 C 395.580 544.820, 398.300 548.674, 401.952 547.515 C 405.193 546.486, 403.971 541, 400.500 541 C 399.895 541, 398.860 541.540, 398.200 542.200 M 439.638 543.500 C 438.784 545.726, 439.970 548, 441.985 548 C 444.344 548, 446.186 545.648, 445.410 543.627 C 444.626 541.583, 440.409 541.491, 439.638 543.500 M 464.011 545.487 C 462.445 547.373, 463.431 550.038, 465.936 550.693 C 466.995 550.970, 467.642 551.770, 467.373 552.470 C 466.882 553.750, 469.447 557, 470.949 557 C 472.489 557, 474.220 554.016, 473.607 552.418 C 473.268 551.534, 472.097 550.577, 471.006 550.291 C 469.915 550.006, 469.287 549.345, 469.609 548.823 C 470.205 547.859, 467.291 544, 465.967 544 C 465.570 544, 464.689 544.669, 464.011 545.487 M 421.040 547.452 C 419.393 549.437, 420.124 552.400, 422.368 552.832 C 425.003 553.340, 426.357 551.560, 425.608 548.573 C 424.892 545.720, 422.886 545.227, 421.040 547.452 M 444.229 550.171 C 442.620 551.780, 442.672 553.483, 444.373 554.895 C 446.579 556.726, 449.152 555.121, 448.804 552.131 C 448.469 549.251, 446.145 548.255, 444.229 550.171 M 423.357 556.513 C 422.613 558.451, 424.713 561, 427.055 561 C 428.961 561, 430.568 557.727, 429.506 556.009 C 428.540 554.447, 424.007 554.819, 423.357 556.513 M 473.389 556.430 C 472.393 559.025, 473.788 561.169, 476.246 560.820 C 477.898 560.585, 478.500 559.833, 478.500 558 C 478.500 555.048, 474.402 553.789, 473.389 556.430 M 448.053 557.436 C 447.154 558.520, 447.140 559.393, 447.998 560.997 C 449.553 563.903, 453.384 563.323, 453.837 560.113 C 454.356 556.446, 450.396 554.613, 448.053 557.436 M 480.250 559.662 C 478.468 560.381, 478.702 563.948, 480.578 564.668 C 482.620 565.452, 485.452 562.620, 484.668 560.578 C 484.065 559.005, 482.621 558.706, 480.250 559.662 M 546.046 561.444 C 543.345 564.699, 547.815 568.614, 550.811 565.618 C 552.084 564.344, 552.215 563.563, 551.376 562.231 C 549.916 559.913, 547.601 559.571, 546.046 561.444 M 428.011 563.487 C 425.424 566.604, 429.812 570.617, 432.675 567.753 C 433.876 566.552, 433.958 565.789, 433.062 564.117 C 431.737 561.640, 429.749 561.392, 428.011 563.487 M 452.465 565.112 C 451.119 569.351, 457.044 571.654, 458.635 567.510 C 459.386 565.552, 457.298 563, 454.945 563 C 453.949 563, 452.833 563.950, 452.465 565.112 M 485.359 564.507 C 485.006 565.427, 485.416 566.844, 486.286 567.714 C 488.410 569.838, 491.227 568.621, 490.820 565.754 C 490.426 562.977, 486.307 562.037, 485.359 564.507 M 539.537 565.606 C 537.639 567.504, 539.074 570, 542.063 570 C 544.546 570, 545.308 568.444, 544.011 566.021 C 542.705 563.580, 541.659 563.484, 539.537 565.606 M 493.011 566.487 C 491.229 568.634, 492.548 571.203, 495.235 570.820 C 497.798 570.455, 498.873 567.168, 496.848 565.885 C 494.974 564.697, 494.425 564.783, 493.011 566.487 M 531.040 568.452 C 529.993 569.713, 529.993 570.287, 531.040 571.548 C 533.045 573.964, 536.500 572.984, 536.500 570 C 536.500 567.016, 533.045 566.036, 531.040 568.452 M 500.667 568.667 C 499.400 569.933, 500.006 572.788, 501.678 573.430 C 503.802 574.245, 506.471 571.669, 505.668 569.578 C 505.060 567.994, 501.913 567.420, 500.667 568.667 M 570.145 569.325 C 568.744 571.014, 569.534 573.607, 571.704 574.440 C 573.854 575.265, 576.157 573.098, 575.798 570.588 C 575.441 568.086, 571.840 567.282, 570.145 569.325 M 626.517 569.626 C 623.269 572.874, 624.988 576.042, 632.500 580.650 C 639.741 585.093, 642.740 585.860, 644.800 583.800 C 648.105 580.495, 645.592 576.787, 636.235 571.164 C 630.247 567.566, 628.805 567.337, 626.517 569.626 M 385.098 572.302 C 382.127 574.075, 378.796 576.732, 377.696 578.206 C 375.800 580.744, 375.783 581.020, 377.371 583.443 C 379.624 586.882, 380.882 586.703, 389.158 581.767 C 397.340 576.886, 399.269 574.060, 396.504 571.004 C 394.005 568.243, 391.403 568.539, 385.098 572.302 M 459.089 570.834 C 458.302 572.304, 458.398 573.085, 459.473 573.978 C 461.770 575.884, 464.500 574.803, 464.500 571.986 C 464.500 568.772, 460.633 567.949, 459.089 570.834 M 507.994 570.507 C 506.887 571.841, 506.931 572.359, 508.258 573.687 C 510.403 575.831, 513.230 574.640, 512.820 571.765 C 512.429 569.026, 509.793 568.339, 507.994 570.507 M 516.011 570.487 C 514.349 572.489, 515.456 575, 518 575 C 519.135 575, 520.324 574.319, 520.643 573.487 C 521.218 571.990, 519.457 569, 518 569 C 517.585 569, 516.689 569.669, 516.011 570.487 M 523.667 569.667 C 522.400 570.933, 523.006 573.788, 524.678 574.430 C 526.802 575.245, 529.471 572.669, 528.668 570.578 C 528.060 568.994, 524.913 568.420, 523.667 569.667 M 432.309 571.636 C 431.482 573.792, 433.259 576.500, 435.500 576.500 C 436.480 576.500, 437.740 575.774, 438.300 574.886 C 439.828 572.464, 438.416 570, 435.500 570 C 434.050 570, 432.665 570.710, 432.309 571.636 M 466.046 575.444 C 463.345 578.699, 467.815 582.614, 470.811 579.618 C 472.084 578.344, 472.215 577.563, 471.376 576.231 C 469.916 573.913, 467.601 573.571, 466.046 575.444 M 563.145 575.325 C 561.278 577.575, 562.851 580.155, 565.878 579.804 C 567.927 579.566, 568.500 578.954, 568.500 577 C 568.500 574.089, 565.063 573.014, 563.145 575.325 M 438.362 578.500 C 436.954 582.168, 441.012 585.417, 443.675 582.753 C 444.876 581.552, 444.958 580.789, 444.062 579.117 C 442.756 576.676, 439.209 576.292, 438.362 578.500 M 473.179 580.284 C 471.609 582.176, 473.963 585.346, 476.566 584.845 C 479.355 584.308, 479.227 579.604, 476.412 579.202 C 475.264 579.038, 473.809 579.525, 473.179 580.284 M 556 580.500 C 554.601 582.186, 556.164 585, 558.500 585 C 560.415 585, 562.111 582.452, 561.410 580.627 C 560.628 578.587, 557.645 578.518, 556 580.500 M 548.724 583.134 C 546.358 584.459, 546.554 587.724, 549.048 588.515 C 551.292 589.228, 554 587.531, 554 585.413 C 554 583.393, 550.762 581.994, 548.724 583.134 M 445.750 584.080 C 442.263 586.111, 445.007 590.767, 448.952 589.515 C 451.220 588.795, 451.657 586.057, 449.800 584.200 C 448.367 582.767, 448.022 582.757, 445.750 584.080 M 481.238 584.162 C 479.255 586.145, 479.798 587.911, 482.607 588.616 C 485.393 589.316, 487.209 587.726, 486.739 585 C 486.408 583.084, 482.857 582.543, 481.238 584.162 M 489 587.500 C 487.435 589.386, 489.267 592, 492.154 592 C 494.567 592, 495.609 589.439, 493.989 587.487 C 492.414 585.589, 490.582 585.594, 489 587.500 M 539.709 586.624 C 538.266 588.068, 539.065 590.886, 541.101 591.532 C 543.629 592.335, 545.318 590.898, 544.834 588.356 C 544.476 586.482, 541.019 585.314, 539.709 586.624 M 581.411 587.371 C 580.299 590.268, 581.432 592.500, 584.014 592.500 C 587.522 592.500, 587.736 586.676, 584.246 586.180 C 582.923 585.992, 581.751 586.485, 581.411 587.371 M 497.389 589.430 C 496.393 592.025, 497.788 594.169, 500.246 593.820 C 501.898 593.585, 502.500 592.833, 502.500 591 C 502.500 588.048, 498.402 586.789, 497.389 589.430 M 531.389 589.430 C 530.393 592.025, 531.788 594.169, 534.246 593.820 C 535.898 593.585, 536.500 592.833, 536.500 591 C 536.500 588.048, 532.402 586.789, 531.389 589.430 M 452.200 590.200 C 450.449 591.951, 450.730 593.785, 452.931 594.963 C 454.795 595.961, 458 594.169, 458 592.129 C 458 591.020, 455.741 589, 454.500 589 C 453.895 589, 452.860 589.540, 452.200 590.200 M 506.200 590.200 C 504.618 591.782, 504.681 593.491, 506.373 594.895 C 509.365 597.378, 513.134 593.277, 510.386 590.529 C 508.543 588.686, 507.774 588.626, 506.200 590.200 M 513.998 591.502 C 512.887 592.841, 512.924 593.353, 514.224 594.653 C 516.437 596.866, 520.215 595.520, 519.808 592.664 C 519.428 589.993, 515.846 589.276, 513.998 591.502 M 522.573 591.670 C 521.613 594.172, 524.625 596.271, 527.198 594.894 C 529.872 593.463, 529.052 590.566, 525.869 590.196 C 524.096 589.990, 523.036 590.464, 522.573 591.670 M 573.465 594.112 C 572.481 597.209, 575.101 599.552, 577.883 598.062 C 580.255 596.793, 580.594 594.994, 578.800 593.200 C 576.924 591.324, 574.202 591.789, 573.465 594.112 M 459.046 595.444 C 456.345 598.699, 460.815 602.614, 463.811 599.618 C 465.084 598.344, 465.215 597.563, 464.376 596.231 C 462.916 593.913, 460.601 593.571, 459.046 595.444 M 565.362 598.500 C 564.486 600.781, 565.711 603, 567.846 603 C 570.733 603, 572.565 600.386, 571 598.500 C 570.315 597.675, 568.896 597, 567.846 597 C 566.796 597, 565.678 597.675, 565.362 598.500 M 466.382 600.446 C 465.545 602.628, 467.889 605.159, 470.412 604.798 C 473.833 604.310, 473.271 599.589, 469.744 599.183 C 467.939 598.975, 466.780 599.411, 466.382 600.446 M 557.051 602.439 C 555.570 604.223, 556.280 606.787, 558.490 607.635 C 560.634 608.457, 563.156 606.089, 562.798 603.588 C 562.432 601.023, 558.824 600.302, 557.051 602.439 M 475.362 604.500 C 474.401 607.004, 475.793 609, 478.500 609 C 481.473 609, 482.775 606.639, 480.989 604.487 C 479.394 602.565, 476.101 602.573, 475.362 604.500 M 548.527 605.616 C 546.700 607.443, 546.900 608.904, 549.174 610.338 C 552.670 612.543, 555.762 608.162, 552.800 605.200 C 551.211 603.611, 550.458 603.685, 548.527 605.616 M 483.382 607.446 C 482.545 609.628, 484.889 612.159, 487.412 611.798 C 490.833 611.310, 490.271 606.589, 486.744 606.183 C 484.939 605.975, 483.780 606.411, 483.382 607.446 M 539.105 608.373 C 536.283 611.774, 541.190 615.255, 544.351 612.093 C 546.005 610.440, 546.120 609.850, 545.045 608.555 C 543.450 606.632, 540.622 606.546, 539.105 608.373 M 492.362 609.500 C 491.401 612.004, 492.793 614, 495.500 614 C 498.473 614, 499.775 611.639, 497.989 609.487 C 496.394 607.565, 493.101 607.573, 492.362 609.500 M 530.046 610.444 C 527.345 613.699, 531.815 617.614, 534.811 614.618 C 536.084 613.344, 536.215 612.563, 535.376 611.231 C 533.916 608.913, 531.601 608.571, 530.046 610.444 M 501.358 611.511 C 500.407 613.989, 503.571 616.760, 505.769 615.374 C 506.721 614.773, 507.500 613.431, 507.500 612.391 C 507.500 609.868, 502.275 609.119, 501.358 611.511 M 512.250 610.667 C 510.411 611.402, 510.728 615.682, 512.678 616.430 C 515.127 617.370, 517.769 614.442, 516.412 612.291 C 515.215 610.394, 514.059 609.943, 512.250 610.667 M 520.709 610.624 C 518.424 612.910, 521.414 617.546, 524.427 616.390 C 526.877 615.450, 526.115 610.588, 523.459 610.208 C 522.336 610.047, 521.099 610.235, 520.709 610.624 M 578.200 619.200 C 577.540 619.860, 577 621.279, 577 622.354 C 577 625.317, 583.777 636.808, 586.625 638.674 C 589.031 640.251, 589.242 640.212, 591.705 637.750 L 594.273 635.181 590.497 628.341 C 588.420 624.578, 586.039 620.712, 585.206 619.750 C 583.457 617.731, 579.945 617.455, 578.200 619.200 M 439.767 621.750 C 438.919 622.712, 436.798 626.352, 435.054 629.837 C 432.064 635.814, 431.973 636.310, 433.465 638.587 C 435.676 641.962, 439.344 641.730, 441.964 638.050 C 446.255 632.025, 449.199 624.240, 448.021 622.038 C 446.652 619.482, 441.913 619.316, 439.767 621.750 M 509.084 639.399 C 508.334 640.302, 508.025 644.109, 508.211 650.128 C 508.494 659.273, 508.554 659.476, 511.220 660.411 C 513.373 661.166, 514.362 660.982, 515.970 659.527 C 518.835 656.934, 518.985 642.201, 516.171 639.655 C 513.937 637.633, 510.648 637.514, 509.084 639.399" stroke="none" fill="#f18e04" fill-rule="evenodd"/>
</svg>